<svg width="167" height="33" fill="none" xmlns="http://www.w3.org/2000/svg"><path d="M24.666 9.196c3.499 4.013 3.499 10.087 0 14.1-4.064 4.663-11.128 4.932-15.54.81a.364.364 0 00-.507.005l-.608.605a.362.362 0 00.005.519c5.06 4.76 13.162 4.462 17.844-.897a12.246 12.246 0 000-16.18c-4.676-5.354-12.76-5.66-17.823-.92a.389.389 0 00-.005.558l.568.566c.15.15.392.15.547.005 4.414-4.103 11.461-3.825 15.52.829z" fill="#BCBEC0"/><path d="M5.543 25.613a14.312 14.312 0 010-18.771C11.001.517 20.556.16 26.478 5.766a.386.386 0 00.54-.004l.575-.572a.385.385 0 00-.005-.552c-6.465-6.143-16.814-5.87-22.935.821-5.545 6.062-5.545 15.473 0 21.535 6.126 6.697 16.483 6.966 22.95.808a.368.368 0 00.004-.524l-.601-.6a.369.369 0 00-.515-.002c-5.92 5.62-15.486 5.266-20.948-1.063z" fill="#B72025"/><path d="M21.963 21.65l-.012-.013-.182-.181a.391.391 0 00-.537-.02c-.08.072-.16.143-.245.21-.044.035-.09.073-.134.106-.052.04-.105.082-.157.12l-.138.1-.164.11c-.048.032-.094.063-.142.092-.054.036-.111.067-.168.1-.048.03-.096.057-.144.084a6.664 6.664 0 01-.172.092l-.147.075c-.058.03-.117.057-.178.082-.05.023-.098.046-.148.067-.061.025-.122.05-.183.073-.05.018-.098.04-.148.058a5.133 5.133 0 01-.191.065 3.98 3.98 0 01-.147.048c-.067.02-.132.038-.199.056l-.142.04c-.071.019-.143.033-.214.05-.044.01-.086.021-.13.03l-.257.045c-.03.005-.06.01-.09.017a9.355 9.355 0 01-.35.044 363.342 363.342 0 00-.352.025l-.132.004-.22.006-.147-.002c-.069-.002-.136-.002-.205-.006a3.738 3.738 0 01-.153-.01 6.029 6.029 0 01-.2-.015c-.052-.004-.104-.013-.156-.019-.065-.008-.13-.014-.195-.025a5.06 5.06 0 01-.16-.027 7.243 7.243 0 01-.19-.033c-.052-.01-.105-.023-.16-.034-.062-.015-.125-.027-.186-.044a6.115 6.115 0 01-.341-.096l-.157-.05c-.061-.02-.122-.042-.18-.063a4.742 4.742 0 01-.333-.131 4.929 4.929 0 01-.327-.148c-.05-.026-.1-.049-.149-.074-.059-.029-.115-.06-.172-.091l-.144-.082a7.08 7.08 0 01-.17-.102l-.14-.088c-.057-.036-.111-.075-.166-.113a5.398 5.398 0 01-.3-.221c-.043-.034-.085-.067-.13-.1l-.163-.139c-.04-.035-.082-.068-.12-.104-.056-.05-.108-.102-.163-.157l-.108-.104c-.06-.06-.118-.123-.177-.186-.029-.031-.058-.06-.085-.092a6.7 6.7 0 01-.976-1.41 6.922 6.922 0 01-.539-1.366c-.027-.094-.05-.19-.073-.284a9.374 9.374 0 01-.07-.332c-.01-.063-.023-.128-.03-.19a6.962 6.962 0 010-2.143l.03-.19a6.264 6.264 0 01.142-.616 6.922 6.922 0 01.538-1.366 6.877 6.877 0 01.978-1.411c.027-.031.058-.06.085-.092.06-.063.116-.125.176-.186l.11-.104.163-.157c.04-.036.08-.069.12-.104.054-.046.106-.094.163-.138.041-.036.085-.067.127-.1l.164-.126c.044-.033.09-.063.136-.094l.165-.113.14-.087a7.08 7.08 0 01.17-.103l.145-.081c.057-.032.115-.063.172-.092.05-.025.098-.05.149-.073.058-.027.117-.057.176-.082l.15-.067.179-.073c.052-.02.102-.04.155-.058l.18-.063.157-.05a4.74 4.74 0 01.184-.052c.053-.015.105-.03.157-.042l.187-.044c.052-.012.104-.023.157-.033.063-.013.128-.023.19-.034.053-.008.105-.018.158-.027.065-.01.13-.017.194-.025l.155-.019c.068-.006.133-.01.2-.014.05-.005.1-.009.152-.01.07-.005.139-.005.208-.007l.144-.002c.074 0 .147.002.22.006l.132.004a5.7 5.7 0 01.266.021l.086.006c.118.013.233.028.35.044l.088.015.26.046c.042.008.086.019.128.03.073.016.144.03.215.05.049.012.095.026.143.039l.199.056c.05.015.098.034.147.048.062.021.125.042.188.065.05.019.099.038.149.059.06.025.123.048.184.073.05.02.099.044.149.067.059.027.12.054.178.083l.147.075a5.25 5.25 0 01.316.175l.168.101.142.092c.055.035.109.073.163.11.047.034.093.066.139.101l.157.12c.046.035.09.07.134.106.084.069.165.14.247.21a.39.39 0 00.532-.018l.185-.184.012-.013.23-.23a.39.39 0 00-.018-.57l-.227-.196c-.006-.006-.01-.013-.018-.019l-.065-.05c-.05-.042-.103-.081-.153-.123-.063-.048-.124-.096-.187-.142-.052-.04-.107-.078-.159-.115l-.193-.132a7.38 7.38 0 00-.163-.104c-.065-.042-.132-.082-.197-.121a6.144 6.144 0 00-.37-.205l-.17-.088c-.07-.033-.139-.067-.21-.098a6.75 6.75 0 00-.388-.167c-.056-.023-.113-.046-.17-.067l-.223-.08c-.057-.018-.111-.039-.168-.056a10.17 10.17 0 00-.237-.07l-.159-.047c-.088-.023-.176-.044-.264-.064-.046-.01-.092-.023-.138-.034a7.717 7.717 0 00-.37-.07l-.034-.007a6.781 6.781 0 00-.537-.069c-.092-.008-.186-.019-.278-.025-.055-.004-.107-.004-.162-.008-.084-.005-.165-.009-.249-.01-.059-.003-.115 0-.174 0l-.237.001-.18.009a8.54 8.54 0 00-.412.03c-.076.01-.151.015-.227.026l-.184.025c-.075.01-.149.023-.224.036a8.223 8.223 0 00-.404.081l-.183.044a8.556 8.556 0 00-.218.058c-.06.017-.121.034-.182.053l-.216.068c-.058.021-.12.04-.178.061-.071.025-.142.054-.214.082l-.173.068c-.072.03-.143.063-.214.094-.057.026-.113.05-.168.078-.07.033-.142.07-.213.106a5.927 5.927 0 00-.38.207l-.148.086c-.078.048-.155.098-.233.148l-.126.082c-.1.066-.196.137-.295.21a6.795 6.795 0 00-.392.307l-.1.088c-.076.067-.153.132-.229.203-.041.037-.081.08-.121.119-.065.063-.13.125-.193.19-.044.044-.084.09-.125.136-.049.05-.097.1-.143.152-.01.013-.02.027-.033.04-.01.013-.023.025-.034.038-.038.043-.073.09-.111.135l-.077.094a7.598 7.598 0 00-.195.26l-.015.018c-.861 1.197-1.355 2.649-1.487 4.14.006.005.006.013.006.021-.008.1-.015.203-.021.305-.002.032-.004.06-.004.092-.004.078-.004.157-.007.234l-.002.163.002.163c.003.077.003.157.007.234.002.031.004.06.004.092l.02.305c0 .008.003.015.003.023.132 1.491.626 2.943 1.487 4.14l.015.019a7.598 7.598 0 00.272.353l.111.136.034.037c.01.013.02.027.034.04.046.052.094.102.142.153l.126.135c.063.065.127.128.192.19l.122.12c.075.068.15.135.228.202.034.03.065.059.1.088.112.094.225.184.338.27l.055.037c.096.073.194.144.295.21.042.03.084.055.126.082.077.05.153.1.232.149.048.029.099.056.149.085.073.042.144.084.218.123.052.03.107.055.161.084.071.036.143.073.214.107.056.027.11.052.167.077.072.031.143.065.214.094l.174.069.214.081c.058.021.119.042.178.06.07.024.144.049.216.07.06.019.121.035.182.052l.218.059.182.043c.073.017.146.032.22.046a7.448 7.448 0 00.409.071c.06.009.12.02.184.026.075.01.15.016.226.024a8.478 8.478 0 00.413.031l.18.01.239.001c.056 0 .115.002.171 0a9.95 9.95 0 00.411-.018c.092-.007.186-.017.279-.026.044-.004.088-.006.13-.012a12.575 12.575 0 00.44-.063 7.68 7.68 0 00.37-.07c.046-.011.09-.024.136-.034.088-.021.176-.042.264-.065l.16-.046c.08-.023.159-.046.236-.071l.168-.056c.075-.025.15-.053.224-.08.057-.02.113-.044.17-.067.073-.029.144-.058.216-.09l.17-.077c.068-.031.14-.064.209-.1.056-.027.113-.058.17-.088.067-.035.136-.07.203-.108a6.648 6.648 0 00.364-.218c.055-.033.11-.069.164-.104.064-.044.13-.088.192-.132l.16-.112c.062-.046.125-.094.188-.145.052-.04.103-.079.153-.12.02-.017.044-.034.065-.053l.019-.019c.075-.062.149-.127.224-.194a.397.397 0 00.019-.576l-.227-.224zM45.444 10.096a2.944 2.944 0 00-2.08-.854h-.265a2.946 2.946 0 00-2.082.854 2.924 2.924 0 00-.857 2.076v10.715c0 .397.078.775.229 1.126a2.908 2.908 0 001.567 1.55c.36.15.743.227 1.141.227h.264a2.947 2.947 0 002.709-1.777c.153-.351.228-.73.228-1.126v-.554a.21.21 0 00-.211-.21h-1.085a.21.21 0 00-.212.21v.554c0 .4-.134.729-.413.996a1.39 1.39 0 01-1.018.403h-.264a1.39 1.39 0 01-1.018-.403 1.317 1.317 0 01-.413-.996V12.17c0-.404.136-.736.415-1.013a1.373 1.373 0 011.016-.414h.264c.404 0 .737.136 1.016.414.279.277.415.61.415 1.013v5.884c0 .117.094.211.212.211h1.085a.21.21 0 00.211-.21V12.17a2.94 2.94 0 00-.854-2.075zM60.422 10.096a2.99 2.99 0 00-.926-.624 2.855 2.855 0 00-1.129-.228h-.291c-.398 0-.777.077-1.13.228-.349.15-.66.361-.925.624a2.924 2.924 0 00-.857 2.076v10.715c0 .396.078.775.228 1.125a2.954 2.954 0 001.553 1.548c.352.153.73.228 1.129.228h.291c.398 0 .777-.077 1.13-.228a2.956 2.956 0 001.552-1.548c.153-.35.228-.729.228-1.125V12.17c0-.395-.078-.778-.228-1.139a2.812 2.812 0 00-.625-.936zm-.65 2.075v10.713c0 .404-.131.73-.401.999a1.35 1.35 0 01-1.002.401h-.29c-.405 0-.734-.132-1.002-.401a1.341 1.341 0 01-.402-.998V12.17c0-.403.132-.735.404-1.015.27-.275.597-.411 1-.411h.29c.403 0 .731.133 1 .411.272.28.404.612.404 1.016zM80.033 10.096a2.965 2.965 0 00-2.08-.854h-.264c-.49 0-.943.106-1.343.313a2.94 2.94 0 00-.83.644 2.883 2.883 0 00-2.168-.959h-.264a2.946 2.946 0 00-2.082.854 2.922 2.922 0 00-.857 2.076v13.407a.21.21 0 00.212.211h1.085a.21.21 0 00.211-.21V12.17c0-.404.136-.734.415-1.014a1.373 1.373 0 011.016-.413h.264c.402 0 .731.133 1 .411.272.28.404.612.404 1.016v13.406a.21.21 0 00.211.211h1.086a.21.21 0 00.211-.21V12.082c.032-.374.178-.685.444-.95a1.31 1.31 0 01.97-.387h.266c.409 0 .744.136 1.025.413.28.278.417.61.417 1.014v13.406a.21.21 0 00.211.211h1.085a.21.21 0 00.212-.21V12.17a2.94 2.94 0 00-.857-2.074zM95.039 10.096a2.988 2.988 0 00-.926-.624 2.855 2.855 0 00-1.13-.228h-.29c-.398 0-.778.077-1.13.228-.35.15-.66.361-.925.624a2.924 2.924 0 00-.857 2.076v18.759c0 .117.094.21.211.21h1.085a.21.21 0 00.212-.21V12.172c0-.403.136-.733.415-1.013.279-.277.603-.413.989-.413h.29c.403 0 .732.133 1 .411.272.28.404.612.404 1.015v10.715c0 .403-.132.729-.402.998a1.35 1.35 0 01-1.001.401h-.821a.21.21 0 00-.212.211v1.082c0 .117.094.211.212.211h.82c.399 0 .778-.077 1.13-.227a2.954 2.954 0 001.552-1.548c.153-.351.229-.73.229-1.126V12.17a2.938 2.938 0 00-.855-2.075zM108.493 9.612h-2.25V5.785a.211.211 0 00-.212-.211h-1.085a.211.211 0 00-.212.21v17.1c0 .397.078.776.229 1.127a2.911 2.911 0 001.567 1.55c.36.15.743.227 1.141.227h.53a.21.21 0 00.212-.21v-1.083a.21.21 0 00-.212-.21h-.53c-.406 0-.739-.133-1.018-.404a1.319 1.319 0 01-.412-.997v-11.77h2.25a.21.21 0 00.211-.212V9.82a.207.207 0 00-.209-.208zM121.276 9.242h-.821c-.398 0-.781.077-1.14.228a2.886 2.886 0 00-1.567 1.564c-.15.357-.228.74-.228 1.139v13.406a.21.21 0 00.212.211h1.085a.21.21 0 00.211-.21V12.17c0-.403.137-.735.415-1.012a1.374 1.374 0 011.016-.414h.821a.21.21 0 00.212-.211V9.45a.216.216 0 00-.216-.21zM151.34 5.574h-1.085a.21.21 0 00-.211.21v17.1c0 .404-.134.73-.413.997a1.39 1.39 0 01-1.016.403h-.264a1.38 1.38 0 01-1.016-.403 1.316 1.316 0 01-.413-.997V12.171c0-.404.136-.736.415-1.014a1.375 1.375 0 011.016-.413h.821a.211.211 0 00.212-.211V9.45a.211.211 0 00-.212-.211h-.821c-.398 0-.781.077-1.14.227a2.886 2.886 0 00-1.567 1.565c-.151.357-.228.74-.228 1.139v10.713c0 .4.077.778.228 1.127.151.348.363.66.627.923.264.265.582.476.94.626.359.15.742.228 1.14.228h.264c.398 0 .781-.077 1.14-.228a2.929 2.929 0 001.567-1.55c.15-.35.228-.729.228-1.126v-17.1a.21.21 0 00-.212-.21zM162.668 16.764a.21.21 0 00-.212.211v1.082a.21.21 0 00.212.211h3.626a.21.21 0 00.211-.211v-5.886a2.902 2.902 0 00-.869-2.077 3.141 3.141 0 00-.932-.622 2.832 2.832 0 00-1.123-.228h-.264c-.396 0-.777.077-1.135.228a2.883 2.883 0 00-1.561 1.564 2.9 2.9 0 00-.226 1.136v10.715c0 .398.077.777.228 1.125.151.35.36.66.624.924.264.265.578.476.937.627.358.15.739.227 1.135.227h.264c.396 0 .773-.077 1.123-.227.346-.15.66-.36.932-.623a2.822 2.822 0 00.867-2.051v-.554a.21.21 0 00-.211-.21h-1.085a.21.21 0 00-.212.21v.554c0 .403-.132.729-.402.998-.27.27-.597.401-1.002.401h-.263c-.407 0-.74-.131-1.017-.403a1.32 1.32 0 01-.412-.996V12.17c0-.404.136-.736.415-1.014a1.371 1.371 0 011.016-.413h.264c.402 0 .729.133.999.411.272.278.404.61.404 1.016v4.593h-2.331zM134.179 16.204a.174.174 0 00.174-.173V14.9a.2.2 0 00-.199-.199h-1.161a2.683 2.683 0 00-2.688 2.68v5.48a2.903 2.903 0 00.87 2.076c.272.263.586.472.932.622.35.15.729.228 1.123.228h.264c.396 0 .777-.077 1.135-.228.358-.15.673-.361.937-.626.264-.264.473-.579.624-.938a2.9 2.9 0 00.226-1.137V12.143c0-.399-.077-.777-.228-1.126a2.954 2.954 0 00-.625-.923 2.88 2.88 0 00-.936-.627 2.912 2.912 0 00-1.135-.227h-.264c-.396 0-.773.077-1.123.227-.346.15-.66.36-.933.623a2.832 2.832 0 00-.867 2.051v.56c0 .113.092.205.205.205h1.176a.125.125 0 00.125-.126v-.639c0-.403.132-.729.403-.998.27-.27.597-.401 1.001-.401h.264c.406 0 .74.131 1.016.403.279.27.413.595.413.996v10.714c0 .403-.136.736-.415 1.013a1.375 1.375 0 01-1.016.414h-.264c-.402 0-.729-.134-.999-.412a1.38 1.38 0 01-.405-1.015v-5.18c0-.815.662-1.475 1.479-1.475h.891v.004z" fill="#B72025"/></svg>