<svg width="224" height="40" fill="none" xmlns="http://www.w3.org/2000/svg"><path d="M71.28 22.719H57.44c-3.52 0-6.4-2.88-6.4-6.4v-5.6c0-3.6 2.88-6.4 6.4-6.4h13.84v4.08h-12.8c-1.92 0-3.44 1.6-3.44 3.44v3.44c0 1.92 1.6 3.44 3.44 3.44H71.2l.08 4zM91.84 16.56V10.4c0-.64-.24-1.12-.56-1.52-.32-.32-.88-.56-1.52-.56h-9.52c-.56 0-1.04.24-1.44.56-.32.32-.56.88-.56 1.44v6.24c0 1.36.64 2.08 2 2.08h9.52c1.44-.08 2.08-.72 2.08-2.08zm4 0c0 .96-.16 1.68-.4 2.48-.24.8-.72 1.44-1.2 1.92s-1.12.96-1.92 1.2c-.8.32-1.6.4-2.48.4h-9.52c-.88 0-1.68-.16-2.4-.4-.72-.24-1.36-.72-1.92-1.28-.56-.56-.96-1.2-1.28-1.92-.32-.72-.4-1.6-.4-2.4V10.4c0-.88.16-1.6.48-2.4.16-.8.64-1.52 1.2-2 .56-.56 1.2-.96 1.92-1.28.72-.32 1.6-.48 2.4-.48h9.52c.88 0 1.68.16 2.4.48.72.32 1.36.72 1.92 1.28.56.56.96 1.2 1.28 1.92.32.72.48 1.6.48 2.4v6.24h-.08zM129.12 22.72h-4.08V10.4c0-1.36-.64-2.08-2-2.08h-6.24v14.32h-4.88V10.4c0-1.36-.64-2.08-2-2.08h-6.8v14.32h-4.4V4.24h11.92c3.92 0 4.24 2.08 4.24 2.08V4.24h8.08c.88 0 1.68.16 2.4.48.72.32 1.36.72 1.92 1.28.56.56.96 1.2 1.28 1.92.32.72.48 1.6.48 2.4l.08 12.4zM147.76 10.4c0-.56-.24-1.04-.56-1.44-.4-.4-.88-.56-1.44-.56h-9.6v4.08h9.6c.56 0 1.04-.24 1.44-.56.32-.56.56-.96.56-1.52zm4.08 0c0 .88-.16 1.6-.48 2.32-.32.72-.8 1.36-1.28 1.92-.56.56-1.2.96-1.92 1.28-.72.32-1.52.48-2.32.48h-9.6v6.24h-4.08V4.24h13.68c.88 0 1.6.16 2.32.48.72.32 1.44.8 1.92 1.28.56.56.96 1.2 1.28 1.92.32.8.48 1.6.48 2.48zM169.68 14.48V8.24h-9.28c-1.36 0-2 .72-2 2.08v4.24l11.28-.08zm4.08 8.24h-4.08v-4.08H158.4v4.08h-4.08V10.4c0-.96.16-1.68.4-2.4.32-.72.72-1.44 1.28-1.92.56-.56 1.2-.96 1.92-1.28.72-.32 1.6-.4 2.4-.4h13.36l.08 18.32zM197.839 4.24v4.08h8.24v14.4h4.08V8.32h8.24V4.24h-20.56zM180.32 8.32h9.6c.56 0 1.04.24 1.44.56.4.4.56.88.56 1.44 0 .56-.24 1.04-.56 1.44-.4.4-.88.56-1.44.56h-9.6v-4zM192.4 16c.72-.32 1.36-.8 1.92-1.28.56-.56.96-1.2 1.28-1.92.32-.72.48-1.52.48-2.32 0-.8-.16-1.6-.48-2.32-.32-.72-.8-1.44-1.28-1.92-.56-.56-1.2-.96-1.92-1.28-.72-.32-1.52-.48-2.32-.48H176.4v18.48h4.08v-6.24h5.6l5.44 6.24h4.72l-5.44-6.24c.48-.4 1.04-.48 1.6-.72zM218.4 26.08H51.04v.48H218.4v-.48zM139.12 34.96c-.24.24-.48.32-.8.4-.32.16-.56.24-.88.24-.56 0-.961-.24-1.281-.56-.32-.32-.479-.8-.479-1.28 0-.72.32-1.28 1.12-1.68-.16-.16-.32-.32-.32-.56-.08-.24-.161-.32-.161-.56 0-.32.161-.72.321-.96.24-.32.56-.4.96-.4.4 0 .72.16.96.4.24.32.32.56.32.96 0 .56-.32.96-.96 1.36l1.2 1.52c.24-.32.32-.64.48-.96l.72.32c-.08.24-.24.4-.32.64-.16.24-.32.4-.4.64l.96 1.2h-.96l-.48-.72zm-1.84-2.32c-.56.32-.88.72-.88 1.12 0 .32.159.56.319.8s.401.32.721.32c.32 0 .8-.16 1.12-.48l-1.28-1.76zm-.24-1.76c0 .16.08.24.16.32.08.16.159.32.319.32.32-.16.401-.24.561-.32.08-.16.16-.32.16-.4 0-.16-.08-.32-.16-.4-.16-.08-.24-.16-.4-.16-.16 0-.32.08-.4.16-.16.24-.24.32-.24.48zM53.92 31.44c0-.4-.32-.72-1.04-.72s-1.04.32-1.04.72v2.88c0 .4.32.72 1.04.72s1.04-.32 1.04-.72v-2.88zm-2.8-.16c0-.64.4-1.2 1.84-1.2 1.36 0 1.84.56 1.84 1.2v3.12c0 .64-.4 1.2-1.84 1.2-1.36 0-1.84-.56-1.84-1.2v-3.12zM59.6 34.32c0 .4.32.72 1.04.72s1.04-.32 1.04-.72v-4c0-.16.08-.16.16-.16h.4c.16 0 .16.08.16.16v4.16c0 .64-.4 1.2-1.84 1.2-1.36 0-1.84-.56-1.84-1.2v-4.16c0-.16.08-.16.16-.16h.56c.08 0 .16.08.16.16v4zM69.6 30.08c.08 0 .16.08.16.16v.32c0 .16-.08.16-.16.16h-1.28v4.64c0 .16-.08.16-.16.16h-.48c-.08 0-.16-.08-.16-.16v-4.64h-1.28c-.16 0-.16-.08-.16-.16v-.32c0-.16.08-.16.16-.16h3.36zM76 31.36c0-.4-.32-.72-.96-.72-.64 0-.96.32-.96.72v.16c0 .32.24.48.4.56l1.44.56c.48.24.88.48.88 1.04v.72c0 .64-.4 1.2-1.76 1.2-1.36 0-1.76-.56-1.76-1.2v-.48c0-.16.08-.16.16-.16h.48c.08 0 .16.08.16.16v.32c0 .4.32.72.96.72.64 0 .96-.32.96-.72v-.32c0-.4-.32-.56-.64-.64l-1.28-.48c-.32-.16-.72-.48-.72-.96v-.4c0-.64.4-1.2 1.68-1.2 1.28 0 1.68.56 1.68 1.2v.32c0 .08-.08.16-.16.16h-.48c-.16 0-.16-.08-.16-.16l.08-.4zM83.52 31.44c0-.4-.32-.72-1.04-.72s-1.04.32-1.04.72v2.88c0 .4.32.72 1.04.72s1.04-.32 1.04-.72v-2.88zm-2.88-.16c0-.64.4-1.2 1.84-1.2 1.36 0 1.84.56 1.84 1.2v3.12c0 .64-.4 1.2-1.84 1.2-1.36 0-1.84-.56-1.84-1.2v-3.12zM89.12 34.32c0 .4.32.72 1.04.72s1.04-.32 1.04-.72v-4c0-.16.08-.16.16-.16h.48c.16 0 .16.08.16.16v4.16c0 .64-.4 1.2-1.84 1.2-1.36 0-1.84-.56-1.84-1.2v-4.16c0-.16.08-.16.16-.16h.48c.08 0 .16.08.16.16v4zM96.88 30.8v1.92h.96c.72 0 1.04-.32 1.04-.72v-.56c0-.4-.32-.72-1.04-.72l-.96.08zm0 2.64v2c0 .16 0 .16-.16.16h-.48c-.08 0-.16-.08-.16-.16v-5.12c0-.16.08-.16.16-.16h1.6c1.36 0 1.84.56 1.84 1.2v.88c0 .48-.24.96-.96 1.12l.96 2.16c.08.08 0 .16-.16.16h-.48c-.16 0-.16-.08-.16-.16l-.96-2h-.16l-.88-.08zM107.2 34.48c0 .64-.4 1.2-1.76 1.2-1.36 0-1.76-.56-1.76-1.2v-3.12c0-.64.4-1.2 1.76-1.2 1.36 0 1.76.56 1.76 1.2v.4c0 .16-.08.16-.16.16h-.48c-.16 0-.16-.08-.16-.16v-.32c0-.4-.32-.72-.96-.72-.72 0-.96.32-.96.72v2.88c0 .4.32.72.96.72.72 0 .96-.32.96-.72V34c0-.08.08-.16.16-.16h.48c.08 0 .16.08.16.16v.48zM111.84 35.44c0 .16 0 .16-.16.16h-.48c-.08 0-.16-.08-.16-.16v-5.12c0-.16.08-.16.16-.16h.48c.16 0 .16.08.16.16v5.12zM119.68 35.44c0 .08 0 .16-.16.16h-.4c-.08 0-.16 0-.16-.08l-1.84-3.36c-.16-.32-.32-.56-.32-.56v3.84c0 .08-.08.16-.16.16h-.4c-.08 0-.16-.08-.16-.16v-5.12c0-.08.08-.16.16-.16h.4c.08 0 .08 0 .16.08l1.92 3.44c.16.24.24.48.24.48v-3.84c0-.08.08-.16.16-.16h.4c.16 0 .16.08.16.16v5.12zM127.2 32.88c.08 0 .16.08.16.16v1.44c0 .64-.4 1.2-1.76 1.2-1.36 0-1.76-.56-1.76-1.2v-3.12c0-.64.4-1.2 1.76-1.2 1.36 0 1.76.56 1.76 1.2v.32c0 .08-.08.16-.16.16h-.48c-.16 0-.16-.08-.16-.16v-.24c0-.4-.32-.72-.96-.72-.64 0-.96.32-.96.72v2.88c0 .4.32.72.96.72.64 0 .96-.32.96-.72v-.8h-.96c-.08 0-.16-.08-.16-.16v-.32c0-.08.08-.16.16-.16h1.6zM151.76 30.08c.08 0 .16.08.16.16v.32c0 .16-.08.16-.16.16h-1.28v4.64c0 .16-.08.16-.16.16h-.48c-.08 0-.16-.08-.16-.16v-4.64h-1.28c-.16 0-.16-.08-.16-.16v-.32c0-.16.08-.16.16-.16h3.36zM155.68 35.6c-.08 0-.16-.08-.16-.16v-5.12c0-.16.08-.16.16-.16h2.72c.08 0 .16.08.16.16v.32c0 .16-.08.16-.16.16h-2.16v1.6h2c.16 0 .16.08.16.16v.32c0 .08-.08.16-.16.16h-2v1.84h2.24c.08 0 .16 0 .16.16v.32c0 .16-.08.16-.16.16h-2.8v.08zM166 34.48c0 .64-.4 1.2-1.76 1.2-1.36 0-1.76-.56-1.76-1.2v-3.12c0-.64.4-1.2 1.76-1.2 1.36 0 1.76.56 1.76 1.2v.4c0 .16-.08.16-.16.16h-.48c-.16 0-.16-.08-.16-.16v-.32c0-.4-.32-.72-.96-.72-.72 0-.96.32-.96.72v2.88c0 .4.32.72.96.72.72 0 .96-.32.96-.72V34c0-.08.08-.16.16-.16h.48c.08 0 .16.08.16.16v.48zM170.719 32.4h2.08v-2.16c0-.16.08-.16.16-.16h.48c.08 0 .16.08.16.16v5.12c0 .16-.08.16-.16.16h-.48c-.08 0-.16-.08-.16-.16v-2.32h-2.08v2.32c0 .16 0 .16-.16.16h-.48c-.08 0-.16-.08-.16-.16v-5.12c0-.16.08-.16.16-.16h.48c.16 0 .16.08.16.16v2.16zM181.36 35.44c0 .08 0 .16-.16.16h-.4c-.08 0-.16 0-.16-.08l-1.84-3.36c-.16-.32-.32-.56-.32-.56v3.84c0 .08-.08.16-.16.16h-.4c-.08 0-.16-.08-.16-.16v-5.12c0-.08.08-.16.16-.16h.4c.08 0 .08 0 .16.08l1.92 3.44c.16.24.24.48.24.48v-3.84c0-.08.08-.16.16-.16h.4c.16 0 .16.08.16.16v5.12zM188.319 31.44c0-.4-.32-.72-1.04-.72s-1.04.32-1.04.72v2.88c0 .4.32.72 1.04.72s1.04-.32 1.04-.72v-2.88zm-2.88-.16c0-.64.4-1.2 1.84-1.2 1.36 0 1.84.56 1.84 1.2v3.12c0 .64-.4 1.2-1.84 1.2-1.36 0-1.84-.56-1.84-1.2v-3.12zM193.92 34.96H196c.08 0 .16 0 .16.16v.32c0 .16-.08.16-.16.16h-2.72c-.08 0-.16-.08-.16-.16v-5.12c0-.16.08-.16.16-.16h.48c.08 0 .16.08.16.16v4.64zM202.64 31.44c0-.4-.32-.72-1.04-.72s-1.04.32-1.04.72v2.88c0 .4.32.72 1.04.72s1.04-.32 1.04-.72v-2.88zm-2.88-.16c0-.64.4-1.2 1.84-1.2 1.36 0 1.84.56 1.84 1.2v3.12c0 .64-.4 1.2-1.84 1.2-1.36 0-1.84-.56-1.84-1.2v-3.12zM210.8 32.88c.08 0 .16.08.16.16v1.44c0 .64-.4 1.2-1.76 1.2-1.36 0-1.76-.56-1.76-1.2v-3.12c0-.64.4-1.2 1.76-1.2 1.36 0 1.76.56 1.76 1.2v.32c0 .08-.08.16-.16.16h-.48c-.16 0-.16-.08-.16-.16v-.24c0-.4-.32-.72-.96-.72-.72 0-.96.32-.96.72v2.88c0 .4.32.72.96.72.72 0 .96-.32.96-.72v-.8h-.96c-.08 0-.16-.08-.16-.16v-.32c0-.08.08-.16.16-.16h1.6zM216.24 32.4l.16.32s.08-.32.16-.32l1.04-2.16c.08-.08.08-.16.16-.16h.48c.08 0 .16.08.08.16l-1.6 3.12v2c0 .08-.08.16-.16.16h-.48c-.16 0-.16-.08-.16-.16v-1.92l-1.6-3.2c-.08-.08 0-.16.16-.16h.56c.08 0 .16.08.24.16l.96 2.16zM24.48 35.6l9.84-7.84-9.84-7.92V35.6z" fill="#fff"/><path d="M24.73 20.361l9.19 7.397-9.19 7.323V20.36z" stroke="#000" stroke-opacity=".5" stroke-width=".5"/><path d="M44.24 4.16L34.32 12l9.92 7.84V4.16z" fill="#fff"/><path d="M43.99 19.323L34.723 12l9.267-7.324v14.647z" stroke="#000" stroke-opacity=".5" stroke-width=".5"/><path d="M24.48 19.84l9.84 7.92 9.92-7.92L34.32 12l-9.84 7.84z" fill="#fff"/><path d="M43.837 19.841L34.32 27.44l-9.44-7.599 9.44-7.522 9.517 7.522z" stroke="#000" stroke-opacity=".5" stroke-width=".5"/><path d="M14.48 12v15.68l9.92-7.84L14.48 12z" fill="#fff"/><path d="M14.73 12.516l9.266 7.324-9.267 7.324V12.516z" stroke="#000" stroke-opacity=".5" stroke-width=".5"/><path d="M14.48 27.68l10 7.92V19.84h-.08l-9.92 7.84z" fill="#fff"/><path d="M24.23 20.292v14.79l-9.348-7.402 9.347-7.388z" stroke="#000" stroke-opacity=".5" stroke-width=".5"/><path d="M24.48 4.16v15.68L34.32 12l-9.84-7.84z" fill="#fff"/><path d="M24.73 4.678L33.917 12l-9.189 7.32V4.679z" stroke="#000" stroke-opacity=".5" stroke-width=".5"/><path d="M4.56 19.84V35.6l9.92-7.84V12l-9.92 7.84z" fill="#fff"/><path d="M14.23 12.516V27.64l-9.42 7.445V19.96l9.42-7.445z" stroke="#000" stroke-opacity=".5" stroke-width=".5"/><path d="M34.32 27.76l9.92 7.84V19.84l-9.92 7.92z" fill="#fff"/><path d="M43.99 20.359v14.724l-9.269-7.325 9.269-7.4z" stroke="#000" stroke-opacity=".5" stroke-width=".5"/><path d="M24.4 4.16L14.48 12l9.92 7.84h.08V4.16h-.08z" fill="#fff"/><path d="M24.23 19.387L14.881 12l9.347-7.387v14.774z" stroke="#000" stroke-opacity=".5" stroke-width=".5"/></svg>