<svg width="252" height="45" fill="none" xmlns="http://www.w3.org/2000/svg"><path d="M80.19 25.56H64.62c-3.96 0-7.2-3.24-7.2-7.2v-6.3c0-4.05 3.24-7.2 7.2-7.2h15.57v4.59h-14.4c-2.16 0-3.87 1.8-3.87 3.87v3.87c0 2.16 1.8 3.87 3.87 3.87H80.1l.09 4.5zM103.321 18.63V11.7c0-.72-.27-1.26-.63-1.71-.36-.36-.99-.63-1.71-.63h-10.71c-.63 0-1.17.27-1.62.63-.36.36-.63.99-.63 1.62v7.02c0 1.53.72 2.34 2.25 2.34h10.71c1.62-.09 2.34-.81 2.34-2.34zm4.5 0c0 1.08-.18 1.89-.45 2.79-.27.9-.81 1.62-1.35 2.16s-1.26 1.08-2.16 1.35c-.9.36-1.8.45-2.79.45h-10.71c-.99 0-1.89-.18-2.7-.45-.81-.27-1.53-.81-2.16-1.44-.63-.63-1.08-1.35-1.44-2.16-.36-.81-.45-1.8-.45-2.7V11.7c0-.99.18-1.8.54-2.7.18-.9.72-1.71 1.35-2.25.63-.63 1.35-1.08 2.16-1.44.81-.36 1.8-.54 2.7-.54h10.71c.99 0 1.89.18 2.7.54.81.36 1.53.81 2.16 1.44.63.63 1.08 1.35 1.44 2.16.36.81.54 1.8.54 2.7v7.02h-.09zM145.26 25.56h-4.59V11.7c0-1.53-.72-2.34-2.25-2.34h-7.02v16.11h-5.49V11.7c0-1.53-.72-2.34-2.25-2.34h-7.65v16.11h-4.95V4.77h13.41c4.41 0 4.77 2.34 4.77 2.34V4.77h9.09c.99 0 1.89.18 2.7.54.81.36 1.53.81 2.16 1.44.63.63 1.08 1.35 1.44 2.16.36.81.54 1.8.54 2.7l.09 13.95zM166.23 11.7c0-.63-.27-1.17-.63-1.62-.45-.45-.99-.63-1.62-.63h-10.8v4.59h10.8c.63 0 1.17-.27 1.62-.63.36-.63.63-1.08.63-1.71zm4.59 0c0 .99-.18 1.8-.54 2.61-.36.81-.9 1.53-1.44 2.16-.63.63-1.35 1.08-2.16 1.44-.81.36-1.71.54-2.61.54h-10.8v7.02h-4.59V4.77h15.39c.99 0 1.8.18 2.61.54.81.36 1.62.9 2.16 1.44.63.63 1.08 1.35 1.44 2.16.36.9.54 1.8.54 2.79zM190.891 16.29V9.27h-10.44c-1.53 0-2.25.81-2.25 2.34v4.77l12.69-.09zm4.59 9.27h-4.59v-4.59h-12.69v4.59h-4.59V11.7c0-1.08.18-1.89.45-2.7.36-.81.81-1.62 1.44-2.16.63-.63 1.35-1.08 2.16-1.44.81-.36 1.8-.45 2.7-.45h15.03l.09 20.61zM222.569 4.77v4.59h9.27v16.2h4.59V9.36h9.27V4.77h-23.13zM202.86 9.36h10.8c.63 0 1.17.27 1.62.63.45.45.63.99.63 1.62 0 .63-.27 1.17-.63 1.62-.45.45-.99.63-1.62.63h-10.8v-4.5zM216.45 18c.81-.36 1.53-.9 2.16-1.44.63-.63 1.08-1.35 1.44-2.16.36-.81.54-1.71.54-2.61 0-.9-.18-1.8-.54-2.61-.36-.81-.9-1.62-1.44-2.16-.63-.63-1.35-1.08-2.16-1.44-.81-.36-1.71-.54-2.61-.54h-15.39v20.79h4.59v-7.02h6.3l6.12 7.02h5.31l-6.12-7.02c.54-.45 1.17-.54 1.8-.81zM245.7 29.34H57.42v.54H245.7v-.54zM156.509 39.33c-.27.27-.54.36-.9.45-.36.18-.63.27-.99.27-.63 0-1.08-.27-1.44-.63-.36-.36-.54-.9-.54-1.44 0-.81.36-1.44 1.26-1.89-.18-.18-.36-.36-.36-.63-.09-.27-.18-.36-.18-.63 0-.36.18-.81.36-1.08.27-.36.63-.45 1.08-.45.45 0 .81.18 1.08.45.27.36.361.63.361 1.08 0 .63-.361 1.08-1.081 1.53l1.35 1.71c.27-.36.361-.72.541-1.08l.809.36c-.09.27-.269.45-.359.72-.18.27-.36.45-.45.72l1.08 1.35h-1.08l-.541-.81zm-2.069-2.61c-.631.36-.991.81-.991 1.26 0 .36.18.63.36.9s.45.36.81.36c.36 0 .9-.18 1.26-.54l-1.439-1.98zm-.271-1.98c0 .18.09.27.18.36.09.18.18.36.36.36.36-.18.451-.27.631-.36.09-.18.18-.36.18-.45 0-.18-.09-.36-.18-.45-.18-.09-.27-.18-.45-.18s-.36.09-.45.18c-.181.27-.271.36-.271.54zM60.66 35.37c0-.45-.36-.81-1.17-.81-.81 0-1.17.36-1.17.81v3.24c0 .45.36.81 1.17.81.81 0 1.17-.36 1.17-.81v-3.24zm-3.15-.18c0-.72.45-1.35 2.07-1.35 1.53 0 2.07.63 2.07 1.35v3.51c0 .72-.45 1.35-2.07 1.35-1.53 0-2.07-.63-2.07-1.35v-3.51zM67.05 38.61c0 .45.36.81 1.17.81.81 0 1.17-.36 1.17-.81v-4.5c0-.18.09-.18.18-.18h.45c.18 0 .18.09.18.18v4.68c0 .72-.45 1.35-2.07 1.35-1.53 0-2.07-.63-2.07-1.35v-4.68c0-.18.09-.18.18-.18h.63c.09 0 .18.09.18.18v4.5zM78.3 33.84c.09 0 .18.09.18.18v.36c0 .18-.09.18-.18.18h-1.44v5.22c0 .18-.09.18-.18.18h-.54c-.09 0-.18-.09-.18-.18v-5.22h-1.44c-.18 0-.18-.09-.18-.18v-.36c0-.18.09-.18.18-.18h3.78zM85.5 35.28c0-.45-.36-.81-1.08-.81-.72 0-1.08.36-1.08.81v.18c0 .36.27.54.45.63l1.62.63c.54.27.99.54.99 1.17v.81c0 .72-.45 1.35-1.98 1.35s-1.98-.63-1.98-1.35v-.54c0-.18.09-.18.18-.18h.54c.09 0 .18.09.18.18v.36c0 .45.36.81 1.08.81.72 0 1.08-.36 1.08-.81v-.36c0-.45-.36-.63-.72-.72l-1.44-.54c-.36-.18-.81-.54-.81-1.08v-.45c0-.72.45-1.35 1.89-1.35s1.89.63 1.89 1.35v.36c0 .09-.09.18-.18.18h-.54c-.18 0-.18-.09-.18-.18l.09-.45zM93.96 35.37c0-.45-.36-.81-1.17-.81-.81 0-1.17.36-1.17.81v3.24c0 .45.36.81 1.17.81.81 0 1.17-.36 1.17-.81v-3.24zm-3.24-.18c0-.72.45-1.35 2.07-1.35 1.53 0 2.07.63 2.07 1.35v3.51c0 .72-.45 1.35-2.07 1.35-1.53 0-2.07-.63-2.07-1.35v-3.51zM100.259 38.61c0 .45.36.81 1.17.81.81 0 1.17-.36 1.17-.81v-4.5c0-.18.09-.18.18-.18h.54c.18 0 .18.09.18.18v4.68c0 .72-.45 1.35-2.07 1.35-1.53 0-2.07-.63-2.07-1.35v-4.68c0-.18.09-.18.18-.18h.54c.09 0 .18.09.18.18v4.5zM108.99 34.65v2.16h1.08c.81 0 1.17-.36 1.17-.81v-.63c0-.45-.36-.81-1.17-.81l-1.08.09zm0 2.97v2.25c0 .18 0 .18-.18.18h-.54c-.09 0-.18-.09-.18-.18v-5.76c0-.18.09-.18.18-.18h1.8c1.53 0 2.07.63 2.07 1.35v.99c0 .54-.27 1.08-1.08 1.26l1.08 2.43c.09.09 0 .18-.18.18h-.54c-.18 0-.18-.09-.18-.18l-1.08-2.25h-.18l-.99-.09zM120.6 38.79c0 .72-.45 1.35-1.98 1.35s-1.98-.63-1.98-1.35v-3.51c0-.72.45-1.35 1.98-1.35s1.98.63 1.98 1.35v.45c0 .18-.09.18-.18.18h-.54c-.18 0-.18-.09-.18-.18v-.36c0-.45-.36-.81-1.08-.81-.81 0-1.08.36-1.08.81v3.24c0 .45.36.81 1.08.81.81 0 1.08-.36 1.08-.81v-.36c0-.09.09-.18.18-.18h.54c.09 0 .18.09.18.18v.54zM125.82 39.87c0 .18 0 .18-.18.18h-.54c-.09 0-.18-.09-.18-.18v-5.76c0-.18.09-.18.18-.18h.54c.18 0 .18.09.18.18v5.76zM134.64 39.87c0 .09 0 .18-.18.18h-.45c-.09 0-.18 0-.18-.09l-2.07-3.78a6.51 6.51 0 00-.36-.63v4.32c0 .09-.09.18-.18.18h-.45c-.09 0-.18-.09-.18-.18v-5.76c0-.09.09-.18.18-.18h.45c.09 0 .09 0 .18.09l2.16 3.87c.18.27.27.54.27.54v-4.32c0-.09.09-.18.18-.18h.45c.18 0 .18.09.18.18v5.76zM143.099 36.99c.09 0 .18.09.18.18v1.62c0 .72-.449 1.35-1.979 1.35s-1.98-.63-1.98-1.35v-3.51c0-.72.45-1.35 1.98-1.35s1.979.63 1.979 1.35v.36c0 .09-.09.18-.18.18h-.54c-.18 0-.18-.09-.18-.18v-.27c0-.45-.359-.81-1.079-.81s-1.08.36-1.08.81v3.24c0 .45.36.81 1.08.81.72 0 1.079-.36 1.079-.81v-.9H141.3c-.09 0-.18-.09-.18-.18v-.36c0-.09.09-.18.18-.18h1.799zM170.73 33.84c.09 0 .18.09.18.18v.36c0 .18-.09.18-.18.18h-1.44v5.22c0 .18-.09.18-.18.18h-.54c-.09 0-.18-.09-.18-.18v-5.22h-1.44c-.18 0-.18-.09-.18-.18v-.36c0-.18.09-.18.18-.18h3.78zM175.14 40.05c-.09 0-.18-.09-.18-.18v-5.76c0-.18.09-.18.18-.18h3.06c.09 0 .18.09.18.18v.36c0 .18-.09.18-.18.18h-2.43v1.8h2.25c.18 0 .18.09.18.18v.36c0 .09-.09.18-.18.18h-2.25v2.07h2.52c.09 0 .18 0 .18.18v.36c0 .18-.09.18-.18.18h-3.15v.09zM186.75 38.79c0 .72-.45 1.35-1.98 1.35s-1.98-.63-1.98-1.35v-3.51c0-.72.45-1.35 1.98-1.35s1.98.63 1.98 1.35v.45c0 .18-.09.18-.18.18h-.54c-.18 0-.18-.09-.18-.18v-.36c0-.45-.36-.81-1.08-.81-.81 0-1.08.36-1.08.81v3.24c0 .45.36.81 1.08.81.81 0 1.08-.36 1.08-.81v-.36c0-.09.09-.18.18-.18h.54c.09 0 .18.09.18.18v.54zM192.059 36.45h2.34v-2.43c0-.18.09-.18.18-.18h.54c.09 0 .18.09.18.18v5.76c0 .18-.09.18-.18.18h-.54c-.09 0-.18-.09-.18-.18v-2.61h-2.34v2.61c0 .18 0 .18-.18.18h-.54c-.09 0-.18-.09-.18-.18v-5.76c0-.18.09-.18.18-.18h.54c.18 0 .18.09.18.18v2.43zM204.03 39.87c0 .09 0 .18-.18.18h-.45c-.09 0-.18 0-.18-.09l-2.07-3.78c-.18-.36-.36-.63-.36-.63v4.32c0 .09-.09.18-.18.18h-.45c-.09 0-.18-.09-.18-.18v-5.76c0-.09.09-.18.18-.18h.45c.09 0 .09 0 .18.09l2.16 3.87c.18.27.27.54.27.54v-4.32c0-.09.09-.18.18-.18h.45c.18 0 .18.09.18.18v5.76zM211.859 35.37c0-.45-.36-.81-1.17-.81-.81 0-1.17.36-1.17.81v3.24c0 .45.36.81 1.17.81.81 0 1.17-.36 1.17-.81v-3.24zm-3.24-.18c0-.72.45-1.35 2.07-1.35 1.53 0 2.07.63 2.07 1.35v3.51c0 .72-.45 1.35-2.07 1.35-1.53 0-2.07-.63-2.07-1.35v-3.51zM218.16 39.33h2.34c.09 0 .18 0 .18.18v.36c0 .18-.09.18-.18.18h-3.06c-.09 0-.18-.09-.18-.18v-5.76c0-.18.09-.18.18-.18h.54c.09 0 .18.09.18.18v5.22zM227.97 35.37c0-.45-.36-.81-1.17-.81-.81 0-1.17.36-1.17.81v3.24c0 .45.36.81 1.17.81.81 0 1.17-.36 1.17-.81v-3.24zm-3.24-.18c0-.72.45-1.35 2.07-1.35 1.53 0 2.07.63 2.07 1.35v3.51c0 .72-.45 1.35-2.07 1.35-1.53 0-2.07-.63-2.07-1.35v-3.51zM237.15 36.99c.09 0 .18.09.18.18v1.62c0 .72-.45 1.35-1.98 1.35s-1.98-.63-1.98-1.35v-3.51c0-.72.45-1.35 1.98-1.35s1.98.63 1.98 1.35v.36c0 .09-.09.18-.18.18h-.54c-.18 0-.18-.09-.18-.18v-.27c0-.45-.36-.81-1.08-.81-.81 0-1.08.36-1.08.81v3.24c0 .45.36.81 1.08.81.81 0 1.08-.36 1.08-.81v-.9h-1.08c-.09 0-.18-.09-.18-.18v-.36c0-.09.09-.18.18-.18h1.8zM243.27 36.45l.18.36s.09-.36.18-.36l1.17-2.43c.09-.09.09-.18.18-.18h.54c.09 0 .18.09.09.18l-1.8 3.51v2.25c0 .09-.09.18-.18.18h-.54c-.18 0-.18-.09-.18-.18v-2.16l-1.8-3.6c-.09-.09 0-.18.18-.18h.63c.09 0 .18.09.27.18l1.08 2.43zM27.54 40.05l11.069-8.82-11.07-8.91v17.73z" fill="#fff"/><path d="M27.79 22.842l10.42 8.387-10.42 8.302V22.84z" stroke="#000" stroke-opacity=".5" stroke-width=".5"/><path d="M49.77 4.68L38.61 13.5l11.16 8.82V4.68z" fill="#fff"/><path d="M49.52 21.803L39.013 13.5 49.52 5.196v16.608z" stroke="#000" stroke-opacity=".5" stroke-width=".5"/><path d="M27.54 22.32l11.07 8.91 11.16-8.91-11.16-8.82-11.07 8.82z" fill="#fff"/><path d="M49.367 22.32L38.61 30.91l-10.671-8.59 10.67-8.501 10.758 8.502z" stroke="#000" stroke-opacity=".5" stroke-width=".5"/><path d="M16.29 13.5v17.64l11.16-8.82-11.16-8.82z" fill="#fff"/><path d="M16.54 14.016l10.506 8.304-10.507 8.304V14.016z" stroke="#000" stroke-opacity=".5" stroke-width=".5"/><path d="M16.29 31.14l11.25 8.91V22.32h-.09l-11.16 8.82z" fill="#fff"/><path d="M27.29 22.765v16.768L16.691 31.14l10.597-8.375z" stroke="#000" stroke-opacity=".5" stroke-width=".5"/><path d="M27.54 4.68v17.64l11.069-8.82-11.07-8.82z" fill="#fff"/><path d="M27.79 5.199l10.418 8.3-10.419 8.302V5.199z" stroke="#000" stroke-opacity=".5" stroke-width=".5"/><path d="M5.13 22.32v17.73l11.16-8.82V13.5L5.13 22.32z" fill="#fff"/><path d="M16.04 14.016V31.11L5.38 39.534V22.44l10.66-8.425z" stroke="#000" stroke-opacity=".5" stroke-width=".5"/><path d="M38.61 31.23l11.16 8.82V22.32l-11.16 8.91z" fill="#fff"/><path d="M49.52 22.84v16.693L39.012 31.23l10.508-8.39z" stroke="#000" stroke-opacity=".5" stroke-width=".5"/><path d="M27.45 4.68L16.29 13.5l11.16 8.82h.09V4.68h-.09z" fill="#fff"/><path d="M27.29 21.875L16.691 13.5 27.29 5.125v16.75z" stroke="#000" stroke-opacity=".5" stroke-width=".5"/><path d="M81.06 26.88H65.49c-3.96 0-7.2-3.24-7.2-7.2v-6.3c0-4.05 3.24-7.2 7.2-7.2h15.57v4.59h-14.4c-2.16 0-3.87 1.8-3.87 3.87v3.87c0 2.16 1.8 3.87 3.87 3.87h14.31l.09 4.5zM104.191 19.95v-6.93c0-.72-.27-1.26-.63-1.71-.36-.36-.99-.63-1.71-.63h-10.71c-.63 0-1.17.27-1.62.63-.36.36-.63.99-.63 1.62v7.02c0 1.53.72 2.34 2.25 2.34h10.71c1.62-.09 2.34-.81 2.34-2.34zm4.5 0c0 1.08-.18 1.89-.45 2.79-.27.9-.81 1.62-1.35 2.16s-1.26 1.08-2.16 1.35c-.9.36-1.8.45-2.79.45h-10.71c-.99 0-1.89-.18-2.7-.45-.81-.27-1.53-.81-2.16-1.44-.63-.63-1.08-1.35-1.44-2.16-.36-.81-.45-1.8-.45-2.7v-6.93c0-.99.18-1.8.54-2.7.18-.9.72-1.71 1.35-2.25.63-.63 1.35-1.08 2.16-1.44.81-.36 1.8-.54 2.7-.54h10.71c.99 0 1.89.18 2.7.54.81.36 1.53.81 2.16 1.44.63.63 1.08 1.35 1.44 2.16.36.81.54 1.8.54 2.7v7.02h-.09zM146.13 26.88h-4.59V13.02c0-1.53-.72-2.34-2.25-2.34h-7.02v16.11h-5.49V13.02c0-1.53-.72-2.34-2.25-2.34h-7.65v16.11h-4.95V6.09h13.41c4.41 0 4.77 2.34 4.77 2.34V6.09h9.09c.99 0 1.89.18 2.7.54.81.36 1.53.81 2.16 1.44.63.63 1.08 1.35 1.44 2.16.36.81.54 1.8.54 2.7l.09 13.95zM167.1 13.02c0-.63-.27-1.17-.63-1.62-.45-.45-.99-.63-1.62-.63h-10.8v4.59h10.8c.63 0 1.17-.27 1.62-.63.36-.63.63-1.08.63-1.71zm4.59 0c0 .99-.18 1.8-.54 2.61-.36.81-.9 1.53-1.44 2.16-.63.63-1.35 1.08-2.16 1.44-.81.36-1.71.54-2.61.54h-10.8v7.02h-4.59V6.09h15.39c.99 0 1.8.18 2.61.54.81.36 1.62.9 2.16 1.44.63.63 1.08 1.35 1.44 2.16.36.9.54 1.8.54 2.79zM191.761 17.61v-7.02h-10.44c-1.53 0-2.25.81-2.25 2.34v4.77l12.69-.09zm4.59 9.27h-4.59v-4.59h-12.69v4.59h-4.59V13.02c0-1.08.18-1.89.45-2.7.36-.81.81-1.62 1.44-2.16.63-.63 1.35-1.08 2.16-1.44.81-.36 1.8-.45 2.7-.45h15.03l.09 20.61zM223.44 6.09v4.59h9.27v16.2h4.589v-16.2h9.27V6.09H223.44zM203.73 10.68h10.8c.63 0 1.17.27 1.62.63.45.45.63.99.63 1.62 0 .63-.27 1.17-.63 1.62-.45.45-.99.63-1.62.63h-10.8v-4.5zm13.59 8.64c.81-.36 1.53-.9 2.16-1.44.63-.63 1.08-1.35 1.44-2.16.36-.81.54-1.71.54-2.61 0-.9-.18-1.8-.54-2.61-.36-.81-.9-1.62-1.44-2.16-.63-.63-1.35-1.08-2.16-1.44-.81-.36-1.71-.54-2.61-.54h-15.39v20.79h4.59v-7.02h6.3l6.12 7.02h5.31l-6.12-7.02c.54-.45 1.17-.54 1.8-.81zM246.57 30.66H58.29v.54h188.28v-.54zM157.38 40.65c-.27.27-.54.36-.9.45-.36.18-.63.27-.99.27-.63 0-1.08-.27-1.44-.63-.36-.36-.54-.9-.54-1.44 0-.81.36-1.44 1.26-1.89-.18-.18-.36-.36-.36-.63-.09-.27-.18-.36-.18-.63 0-.36.18-.81.36-1.08.27-.36.63-.45 1.08-.45.45 0 .81.18 1.08.45.27.36.36.63.36 1.08 0 .63-.36 1.08-1.08 1.53l1.35 1.71c.27-.36.36-.72.54-1.08l.81.36c-.09.27-.27.45-.36.72-.18.27-.36.45-.45.72l1.08 1.35h-1.08l-.54-.81zm-2.07-2.61c-.63.36-.99.81-.99 1.26 0 .36.18.63.36.9s.45.36.81.36c.36 0 .9-.18 1.26-.54l-1.44-1.98zm-.27-1.98c0 .18.09.27.18.36.09.18.18.36.36.36.36-.18.45-.27.63-.36.09-.18.18-.36.18-.45 0-.18-.09-.36-.18-.45-.18-.09-.27-.18-.45-.18s-.36.09-.45.18c-.18.27-.27.36-.27.54zM61.53 36.69c0-.45-.36-.81-1.17-.81-.81 0-1.17.36-1.17.81v3.24c0 .45.36.81 1.17.81.81 0 1.17-.36 1.17-.81v-3.24zm-3.15-.18c0-.72.45-1.35 2.07-1.35 1.53 0 2.07.63 2.07 1.35v3.51c0 .72-.45 1.35-2.07 1.35-1.53 0-2.07-.63-2.07-1.35v-3.51zM67.92 39.93c0 .45.36.81 1.17.81.81 0 1.17-.36 1.17-.81v-4.5c0-.18.09-.18.18-.18h.45c.18 0 .18.09.18.18v4.68c0 .72-.45 1.35-2.07 1.35-1.53 0-2.07-.63-2.07-1.35v-4.68c0-.18.09-.18.18-.18h.63c.09 0 .18.09.18.18v4.5zM79.17 35.16c.09 0 .18.09.18.18v.36c0 .18-.09.18-.18.18h-1.44v5.22c0 .18-.09.18-.18.18h-.54c-.09 0-.18-.09-.18-.18v-5.22h-1.44c-.18 0-.18-.09-.18-.18v-.36c0-.18.09-.18.18-.18h3.78zM86.37 36.6c0-.45-.36-.81-1.08-.81-.72 0-1.08.36-1.08.81v.18c0 .36.27.54.45.63l1.62.63c.54.27.99.54.99 1.17v.81c0 .72-.45 1.35-1.98 1.35s-1.98-.63-1.98-1.35v-.54c0-.18.09-.18.18-.18h.54c.09 0 .18.09.18.18v.36c0 .45.36.81 1.08.81.72 0 1.08-.36 1.08-.81v-.36c0-.45-.36-.63-.72-.72l-1.44-.54c-.36-.18-.81-.54-.81-1.08v-.45c0-.72.45-1.35 1.89-1.35s1.89.63 1.89 1.35v.36c0 .09-.09.18-.18.18h-.54c-.18 0-.18-.09-.18-.18l.09-.45zM94.83 36.69c0-.45-.36-.81-1.17-.81-.81 0-1.17.36-1.17.81v3.24c0 .45.36.81 1.17.81.81 0 1.17-.36 1.17-.81v-3.24zm-3.24-.18c0-.72.45-1.35 2.07-1.35 1.53 0 2.07.63 2.07 1.35v3.51c0 .72-.45 1.35-2.07 1.35-1.53 0-2.07-.63-2.07-1.35v-3.51zM101.13 39.93c0 .45.36.81 1.17.81.81 0 1.17-.36 1.17-.81v-4.5c0-.18.09-.18.18-.18h.54c.18 0 .18.09.18.18v4.68c0 .72-.45 1.35-2.07 1.35-1.53 0-2.07-.63-2.07-1.35v-4.68c0-.18.09-.18.18-.18h.54c.09 0 .18.09.18.18v4.5zM109.86 35.97v2.16h1.08c.81 0 1.17-.36 1.17-.81v-.63c0-.45-.36-.81-1.17-.81l-1.08.09zm0 2.97v2.25c0 .18 0 .18-.18.18h-.54c-.09 0-.18-.09-.18-.18v-5.76c0-.18.09-.18.18-.18h1.8c1.53 0 2.07.63 2.07 1.35v.99c0 .54-.27 1.08-1.08 1.26l1.08 2.43c.09.09 0 .18-.18.18h-.54c-.18 0-.18-.09-.18-.18l-1.08-2.25h-.18l-.99-.09zM121.47 40.11c0 .72-.45 1.35-1.98 1.35s-1.98-.63-1.98-1.35V36.6c0-.72.45-1.35 1.98-1.35s1.98.63 1.98 1.35v.45c0 .18-.09.18-.18.18h-.54c-.18 0-.18-.09-.18-.18v-.36c0-.45-.36-.81-1.08-.81-.81 0-1.08.36-1.08.81v3.24c0 .45.36.81 1.08.81.81 0 1.08-.36 1.08-.81v-.36c0-.09.09-.18.18-.18h.54c.09 0 .18.09.18.18v.54zM126.69 41.19c0 .18 0 .18-.18.18h-.54c-.09 0-.18-.09-.18-.18v-5.76c0-.18.09-.18.18-.18h.54c.18 0 .18.09.18.18v5.76zM135.51 41.19c0 .09 0 .18-.18.18h-.45c-.09 0-.18 0-.18-.09l-2.07-3.78a6.51 6.51 0 00-.36-.63v4.32c0 .09-.09.18-.18.18h-.45c-.09 0-.18-.09-.18-.18v-5.76c0-.09.09-.18.18-.18h.45c.09 0 .09 0 .18.09l2.16 3.87c.18.27.27.54.27.54v-4.32c0-.09.09-.18.18-.18h.45c.18 0 .18.09.18.18v5.76zM143.97 38.31c.09 0 .18.09.18.18v1.62c0 .72-.45 1.35-1.98 1.35s-1.98-.63-1.98-1.35V36.6c0-.72.45-1.35 1.98-1.35s1.98.63 1.98 1.35v.36c0 .09-.09.18-.18.18h-.54c-.18 0-.18-.09-.18-.18v-.27c0-.45-.36-.81-1.08-.81-.72 0-1.08.36-1.08.81v3.24c0 .45.36.81 1.08.81.72 0 1.08-.36 1.08-.81v-.9h-1.08c-.09 0-.18-.09-.18-.18v-.36c0-.09.09-.18.18-.18h1.8zM171.6 35.16c.09 0 .18.09.18.18v.36c0 .18-.09.18-.18.18h-1.44v5.22c0 .18-.09.18-.18.18h-.54c-.09 0-.18-.09-.18-.18v-5.22h-1.44c-.18 0-.18-.09-.18-.18v-.36c0-.18.09-.18.18-.18h3.78zM176.01 41.37c-.09 0-.18-.09-.18-.18v-5.76c0-.18.09-.18.18-.18h3.06c.09 0 .18.09.18.18v.36c0 .18-.09.18-.18.18h-2.43v1.8h2.25c.18 0 .18.09.18.18v.36c0 .09-.09.18-.18.18h-2.25v2.07h2.52c.09 0 .18 0 .18.18v.36c0 .18-.09.18-.18.18h-3.15v.09zM187.62 40.11c0 .72-.45 1.35-1.98 1.35s-1.98-.63-1.98-1.35V36.6c0-.72.45-1.35 1.98-1.35s1.98.63 1.98 1.35v.45c0 .18-.09.18-.18.18h-.54c-.18 0-.18-.09-.18-.18v-.36c0-.45-.36-.81-1.08-.81-.81 0-1.08.36-1.08.81v3.24c0 .45.36.81 1.08.81.81 0 1.08-.36 1.08-.81v-.36c0-.09.09-.18.18-.18h.54c.09 0 .18.09.18.18v.54zM192.93 37.77h2.34v-2.43c0-.18.09-.18.18-.18h.54c.09 0 .18.09.18.18v5.76c0 .18-.09.18-.18.18h-.54c-.09 0-.18-.09-.18-.18v-2.61h-2.34v2.61c0 .18 0 .18-.18.18h-.54c-.09 0-.18-.09-.18-.18v-5.76c0-.18.09-.18.18-.18h.54c.18 0 .18.09.18.18v2.43zM204.9 41.19c0 .09 0 .18-.18.18h-.45c-.09 0-.18 0-.18-.09l-2.07-3.78c-.18-.36-.36-.63-.36-.63v4.32c0 .09-.09.18-.18.18h-.45c-.09 0-.18-.09-.18-.18v-5.76c0-.09.09-.18.18-.18h.45c.09 0 .09 0 .18.09l2.16 3.87c.18.27.27.54.27.54v-4.32c0-.09.09-.18.18-.18h.45c.18 0 .18.09.18.18v5.76zM212.73 36.69c0-.45-.36-.81-1.17-.81-.81 0-1.17.36-1.17.81v3.24c0 .45.36.81 1.17.81.81 0 1.17-.36 1.17-.81v-3.24zm-3.24-.18c0-.72.45-1.35 2.07-1.35 1.53 0 2.07.63 2.07 1.35v3.51c0 .72-.45 1.35-2.07 1.35-1.53 0-2.07-.63-2.07-1.35v-3.51zM219.03 40.65h2.34c.09 0 .18 0 .18.18v.36c0 .18-.09.18-.18.18h-3.06c-.09 0-.18-.09-.18-.18v-5.76c0-.18.09-.18.18-.18h.54c.09 0 .18.09.18.18v5.22zM228.84 36.69c0-.45-.36-.81-1.17-.81-.81 0-1.17.36-1.17.81v3.24c0 .45.36.81 1.17.81.81 0 1.17-.36 1.17-.81v-3.24zm-3.24-.18c0-.72.45-1.35 2.07-1.35 1.53 0 2.07.63 2.07 1.35v3.51c0 .72-.45 1.35-2.07 1.35-1.53 0-2.07-.63-2.07-1.35v-3.51zM238.02 38.31c.09 0 .18.09.18.18v1.62c0 .72-.45 1.35-1.98 1.35s-1.98-.63-1.98-1.35V36.6c0-.72.45-1.35 1.98-1.35s1.98.63 1.98 1.35v.36c0 .09-.09.18-.18.18h-.54c-.18 0-.18-.09-.18-.18v-.27c0-.45-.36-.81-1.08-.81-.81 0-1.08.36-1.08.81v3.24c0 .45.36.81 1.08.81.81 0 1.08-.36 1.08-.81v-.9h-1.08c-.09 0-.18-.09-.18-.18v-.36c0-.09.09-.18.18-.18h1.8zM244.14 37.77l.18.36s.09-.36.18-.36l1.17-2.43c.09-.09.09-.18.18-.18h.54c.09 0 .18.09.09.18l-1.8 3.51v2.25c0 .09-.09.18-.18.18h-.54c-.18 0-.18-.09-.18-.18v-2.16l-1.8-3.6c-.09-.09.001-.18.18-.18h.63c.09 0 .18.09.27.18l1.08 2.43z" fill="#414240"/><path d="M28.41 41.37l11.07-8.82-11.07-8.91v17.73zM50.64 6l-11.16 8.82 11.16 8.82V6z" fill="#B1B1B1"/><path d="M28.41 23.64l11.07 8.91 11.16-8.91-11.16-8.82-11.07 8.82z" fill="#868686"/><path d="M17.16 14.82v17.64l11.16-8.82-11.16-8.82z" fill="#685050"/><path d="M17.16 32.46l11.25 8.91V23.64h-.09l-11.16 8.82z" fill="#868686"/><path d="M28.41 6v17.64l11.07-8.82L28.41 6z" fill="#B61921"/><path d="M6 23.64v17.73l11.16-8.82V14.82L6 23.64z" fill="#D61028"/><path d="M39.48 32.55l11.16 8.82V23.64l-11.16 8.91z" fill="#B61921"/><path d="M28.32 6l-11.16 8.82 11.16 8.82h.09V6h-.09z" fill="#D61028"/></svg>